<svg width="20" height="20" viewBox="0 0 20 20" fill="none" xmlns="http://www.w3.org/2000/svg">
<path d="M2.52326 0.415359L10 7.89183L17.446 0.446127C17.7097 0.165528 18.0763 0.00446127 18.4613 0C19.311 0 19.9998 0.688727 19.9998 1.53837C20.007 1.91958 19.8567 2.28694 19.5844 2.55369L12.0615 9.99939L19.5844 17.522C19.8379 17.77 19.9867 18.106 19.9998 18.4604C19.9998 19.3101 19.311 19.9988 18.4613 19.9988C18.0649 20.0152 17.6798 19.8645 17.3998 19.5834L10 12.107L2.53865 19.568C2.27604 19.8393 1.91605 19.9943 1.53867 19.9988C0.689002 19.9988 0.000249336 19.3101 0.000249336 18.4604C-0.00698125 18.0792 0.143323 17.7118 0.415624 17.4451L7.93851 9.99939L0.415624 2.47677C0.162091 2.22879 0.0133259 1.89281 0.000249336 1.53837C0.000249336 0.688727 0.689002 0 1.53867 0C1.90851 0.00446127 2.26189 0.153529 2.52326 0.415359Z" fill="#56FFBE"/>
</svg>
